<svg xmlns="http://www.w3.org/2000/svg" width="21.04" height="21.559" viewBox="0 0 21.04 21.559"><defs><style>.a{fill:#fff;}</style></defs><g transform="translate(-1034.864 -365.043)"><path class="a" d="M1015.177,532.325c-5.146,0-9.1-1.26-9.205-2.941a8.477,8.477,0,0,1,1.682-4.709,8.074,8.074,0,0,1,4.2-2.848l1.067-.309-.931-.6a5.525,5.525,0,0,1-2.31-6.207,5.857,5.857,0,0,1,5.375-3.944,5.426,5.426,0,0,1,3.781,1.65,5.535,5.535,0,0,1-.819,8.4l-.866.6,1.008.3a8.186,8.186,0,0,1,6.223,7.585C1024.386,531.024,1020.427,532.325,1015.177,532.325Z" transform="translate(28.892 -145.723)"/><path class="a" d="M1056.07,590.5l-.016,0-.548-.163a.563.563,0,0,1-.345-.288l-.385.112a6.591,6.591,0,0,0-3.431,2.325,6.917,6.917,0,0,0-1.372,3.843c.082,1.372,3.313,2.4,7.514,2.4a20.2,20.2,0,0,0,4.355-.432.942.942,0,0,0,.193-.533A7.889,7.889,0,0,0,1056.07,590.5Z" transform="translate(-9.098 -214.175)"/><path class="a" d="M1097.534,533.744s-.453-.1-.416-.325.7-.709.873-.882a4.517,4.517,0,0,0,.1-6.387,4.429,4.429,0,0,0-2.964-1.341,5.876,5.876,0,0,1-1.306,8.414l-.282.2.319.1a8.575,8.575,0,0,1,6.474,7.9v.015a1.492,1.492,0,0,1-.036.319c1.445-.444,2.322-1.082,2.322-1.813A6.683,6.683,0,0,0,1097.534,533.744Z" transform="translate(-46.711 -157.848)"/><path class="a" d="M1076.034,528.906a5.153,5.153,0,0,0-1.375-3.6,4.781,4.781,0,0,0-3.673,3.146,4.51,4.51,0,0,0,1.885,5.067l.25.161a.561.561,0,0,1,.208-.262l.471-.327a5.245,5.245,0,0,0,.658-.542A5.158,5.158,0,0,0,1076.034,528.906Z" transform="translate(-27.083 -158.281)"/></g></svg>