<svg xmlns="http://www.w3.org/2000/svg" xmlns:xlink="http://www.w3.org/1999/xlink" width="20.5" height="20.5" viewBox="0 0 20.5 20.5"><defs><style>.a{fill:#843737;}.b{fill:#fff;}.c{clip-path:url(#a);}.d{fill:#f2692c;fill-rule:evenodd;}</style><clipPath id="a"><rect class="a" width="20.5" height="20.5" rx="3" transform="translate(0 0)"/></clipPath></defs><g transform="translate(-366 -364)"><rect class="b" width="18" height="16" transform="translate(367 366)"/><g class="c" transform="translate(366 364)"><path class="d" d="M21.222,3H5.278A2.284,2.284,0,0,0,3,5.278V21.222A2.284,2.284,0,0,0,5.278,23.5H21.222A2.284,2.284,0,0,0,23.5,21.222V5.278A2.284,2.284,0,0,0,21.222,3ZM10.972,18.944,5.278,13.469l1.594-1.533,4.1,3.942,8.656-8.323,1.594,1.533-10.25,9.856Z" transform="translate(-3 -3)"/></g></g></svg>