<svg xmlns="http://www.w3.org/2000/svg" width="20.504" height="20.504" viewBox="0 0 20.504 20.504"><defs><style>.a{fill:none;}.b,.c{stroke:none;}.c{fill:#fff;}</style></defs><g class="a"><path class="b" d="M3.953,0h12.6A3.953,3.953,0,0,1,20.5,3.953v12.6A3.953,3.953,0,0,1,16.551,20.5H3.953A3.953,3.953,0,0,1,0,16.551V3.953A3.953,3.953,0,0,1,3.953,0Z"/><path class="c" d="M 3.95252799987793 1.999998092651367 C 2.875898361206055 1.999998092651367 1.999998092651367 2.875898361206055 1.999998092651367 3.95252799987793 L 1.999998092651367 16.55118942260742 C 1.999998092651367 17.6278190612793 2.875898361206055 18.50371932983398 3.95252799987793 18.50371932983398 L 16.55118942260742 18.50371932983398 C 17.6278190612793 18.50371932983398 18.50371932983398 17.6278190612793 18.50371932983398 16.55118942260742 L 18.50371932983398 3.95252799987793 C 18.50371932983398 2.875898361206055 17.6278190612793 1.999998092651367 16.55118942260742 1.999998092651367 L 3.95252799987793 1.999998092651367 M 3.95252799987793 -1.9073486328125e-06 L 16.55118942260742 -1.9073486328125e-06 C 18.73410797119141 -1.9073486328125e-06 20.50371932983398 1.769609451293945 20.50371932983398 3.95252799987793 L 20.50371932983398 16.55118942260742 C 20.50371932983398 18.73410797119141 18.73410797119141 20.50371932983398 16.55118942260742 20.50371932983398 L 3.95252799987793 20.50371932983398 C 1.769609451293945 20.50371932983398 -1.9073486328125e-06 18.73410797119141 -1.9073486328125e-06 16.55118942260742 L -1.9073486328125e-06 3.95252799987793 C -1.9073486328125e-06 1.769609451293945 1.769609451293945 -1.9073486328125e-06 3.95252799987793 -1.9073486328125e-06 Z"/></g></svg>