<svg xmlns="http://www.w3.org/2000/svg" xmlns:xlink="http://www.w3.org/1999/xlink" width="40" height="40" viewBox="0 0 40 40"><defs><style>.a{fill:none;}.b{clip-path:url(#a);}.c{clip-path:url(#b);}.d{fill:#f60;}</style><clipPath id="a"><rect class="a" width="40" height="40"/></clipPath><clipPath id="b"><path class="a" d="M12.846,35.284a.836.836,0,0,1-.594-.249L7.471,30.254a.853.853,0,0,1,0-1.217l4.781-4.781a.835.835,0,0,1,.6-.259.849.849,0,0,1,.856.859v3.068a10.275,10.275,0,0,0,9.528-14.138A1.64,1.64,0,0,1,23.631,12a1.7,1.7,0,0,1,1.207-.5,1.723,1.723,0,0,1,1.6,1.087,13.325,13.325,0,0,1,.978,5.054A13.725,13.725,0,0,1,13.71,31.35v3.085A.848.848,0,0,1,12.846,35.284ZM2.581,23.783A1.723,1.723,0,0,1,.976,22.7,13.358,13.358,0,0,1,0,17.641,13.724,13.724,0,0,1,13.71,3.933V.865A.857.857,0,0,1,14.575,0a.83.83,0,0,1,.591.248l4.781,4.781a.847.847,0,0,1,0,1.217l-4.781,4.781a.833.833,0,0,1-.6.259.871.871,0,0,1-.591-.235.847.847,0,0,1-.264-.624V7.36A10.3,10.3,0,0,0,3.427,17.641,10.031,10.031,0,0,0,4.181,21.5a1.636,1.636,0,0,1-.393,1.783A1.7,1.7,0,0,1,2.581,23.783Z" transform="translate(0 0)"/></clipPath></defs><g class="b"><g class="c" transform="translate(6 2)"><g transform="translate(-6.855 -2.922)"><rect class="d" width="41.128" height="41.128"/></g></g><rect class="a" width="40" height="40"/></g></svg>