<svg xmlns="http://www.w3.org/2000/svg" width="52.805" height="52.805" viewBox="0 0 52.805 52.805"><defs><style>.a{fill:#004879;}.b{fill:#fff;fill-rule:evenodd;}</style></defs><circle class="a" cx="26.402" cy="26.402" r="26.402"/><path class="b" d="M42.172,36.762h-9a2.6,2.6,0,0,0-2.6,2.6v4.521H24.76A1.76,1.76,0,0,1,23,42.128V30.76A1.76,1.76,0,0,1,24.76,29H40.411a1.76,1.76,0,0,1,1.761,1.76Zm-8.451,1.49H49.372a1.76,1.76,0,0,1,1.76,1.761V51.38a1.76,1.76,0,0,1-1.76,1.76H33.72a1.76,1.76,0,0,1-1.76-1.76V40.012A1.76,1.76,0,0,1,33.72,38.252Zm1.334,2.234a.915.915,0,0,0-.915.915v8.8a.915.915,0,0,0,.915.916H48.36a.915.915,0,0,0,.915-.916V41.4a.915.915,0,0,0-.915-.916H35.055Z" transform="translate(-10.855 -13.687)"/></svg>